<svg xmlns="http://www.w3.org/2000/svg" width="271.314" height="73.743" viewBox="0 0 271.314 73.743"><defs><style>.a,.b{fill:none;stroke-miterlimit:10;}.a{stroke:rgba(255,210,228,0.62);stroke-width:2px;}.b{stroke:#db0054;stroke-width:1.5px;}.c{font-size:44px;font-family:Rancho-Regular, Rancho;}.d{fill:#d6d6d6;}</style></defs><g transform="translate(-809.098 -57.508)"><g transform="translate(809.848 59.951)"><g transform="translate(1.462 1.137)"><path class="a" d="M171.38,395.752a8.893,8.893,0,0,0-.968,3.377c.045.807,1.048,1.356,1.813,1.66a18.838,18.838,0,0,1-1.878,3.536c-3.4,4.892-9.511,8.613-15.742,8.194-1.475-.1-5.287-.357-6.6-2.781-.895-1.645-.377-3.8.3-6.606.814-3.383,1.821-4.4,1.192-6.107a5.55,5.55,0,0,0-2.583-2.732c-.9-.477-1.45-.448-3.427-.744a28.725,28.725,0,0,1-4.915-.994,12.265,12.265,0,0,1-4.569-2.93,15.93,15.93,0,0,1-3.923-6.305,25.06,25.06,0,0,1-1.441-10.627c.127-3.132.247-6.057,1.936-9.385a23.058,23.058,0,0,1,9.734-9.336c5.064-2.311,10.041-1.228,12.711-.646a28.1,28.1,0,0,1,11.769,5.86,28.982,28.982,0,0,1,11.62,22.4q.073,1.262.052,2.462Z" transform="translate(-123.439 -348.452)"/><path class="a" d="M305.284,632.839a4.833,4.833,0,0,0-1.862,3.948,4.216,4.216,0,0,0,2.011,3.5,4.018,4.018,0,0,0,4.32-.6,4.6,4.6,0,0,0,1.49-3.724c-.014-.561-.066-2.694-1.713-3.65C307.618,631.209,305.4,632.754,305.284,632.839Z" transform="translate(-271.164 -584.49)"/><path class="a" d="M190.8,398.439a2.823,2.823,0,0,0-2.4,2.938c.151,1.831,2.075,2.883,3.593,2.992a3.7,3.7,0,0,0,3.7-2.62,2.725,2.725,0,0,0-.538-2.756,2.563,2.563,0,0,0-2.441-.77" transform="translate(-173.976 -386.989)"/><path class="a" d="M291.82,407.271a4.209,4.209,0,0,0-1.266,4.916,3.882,3.882,0,0,0,3.873,2.309,4.045,4.045,0,0,0,3.054-2.681c.372-1.291.666-2.517-.509-3.8a4.932,4.932,0,0,0-3.364-1.192" transform="translate(-260.009 -394.303)"/><path class="a" d="M361.174,483.85a4.311,4.311,0,0,0-1.937,4.395,2.992,2.992,0,0,0,3.128,1.937,3.09,3.09,0,0,0,2.793-2.979,3.44,3.44,0,0,0-.348-2.21,2.594,2.594,0,0,0-2.222-1.142" transform="translate(-318.231 -459.382)"/><path class="a" d="M130.523,457.063l6.033-4.916" transform="translate(-125.08 -432.597)"/><path class="a" d="M263.5,700.67l6.033-4.916" transform="translate(-237.435 -638.426)"/><path class="a" d="M128.58,432.328l6.033-4.41" transform="translate(-123.439 -412.126)"/><path class="a" d="M130.523,487.348l7-5.595" transform="translate(-125.08 -457.612)"/><path class="a" d="M138.16,499.729l10.287-7.889" transform="translate(-131.533 -466.135)"/><path class="a" d="M152.239,524.368l11.407-9.213" transform="translate(-143.429 -485.834)"/><path class="a" d="M178.884,552.407l9.875-8.551" transform="translate(-165.941 -510.084)"/><path class="a" d="M212.469,570.047l9.584-7.861" transform="translate(-194.318 -525.572)"/><path class="a" d="M253.684,586.033l8.073-6.622" transform="translate(-229.142 -540.125)"/><path class="a" d="M264.3,607.35,274.425,599" transform="translate(-238.11 -556.673)"/><path class="a" d="M252.453,661.8l8.455-6.945" transform="translate(-228.101 -603.872)"/><path class="a" d="M295.454,674.754,309.8,662.928" transform="translate(-264.434 -610.691)"/><path class="a" d="M95.426,534.495a18.467,18.467,0,0,0,.9,5.953c1.311,3.077,4.669,5.688,5.638,6.4" transform="translate(-95.426 -502.175)"/><path class="a" d="M443.057,598.185a71.608,71.608,0,0,0,4.019-6.2c1.39-2.332,4.251-7.712,4.756-8.971" transform="translate(-389.147 -543.172)"/><path class="a" d="M330.12,753.876a19.353,19.353,0,0,0,4.031-.991,14.821,14.821,0,0,0,3.341-2.372" transform="translate(-293.724 -684.693)"/><path class="a" d="M416.254,434.159s-12.068,28.38-13.2,30.639-2.068,1.944-2.068,1.944a7.361,7.361,0,0,1-.869-.284c-.765-.3-1.767-.853-1.813-1.66a8.893,8.893,0,0,1,.968-3.377l5.076-11.708,7.811-18.013a2.466,2.466,0,0,1,2-1.405c1.48-.138,2.469.659,2.57,1.405A8.319,8.319,0,0,1,416.254,434.159Z" transform="translate(-351.328 -414.122)"/><path class="a" d="M394.518,374.4a9.586,9.586,0,0,1,3.352,2.384,10.52,10.52,0,0,1,2.458,7.672" transform="translate(-348.135 -366.909)"/><path class="a" d="M216.86,678.805a9.349,9.349,0,0,1-1.945-3.251,7.971,7.971,0,0,1,.851-6.769" transform="translate(-196.039 -615.64)"/><path class="a" d="M495.807,326.084s.372,2.607-2.756,4.618-5.625,4.171-5.532,6.778c.073,2.074,1.359,2.853,2.336,2.882,2.458.072,3.125-.527,4.91-2.509A10.745,10.745,0,0,0,497.3,331a9.825,9.825,0,0,0-1.043-4.4Z" transform="translate(-426.711 -326.084)"/><path class="a" d="M518.167,351.985a6.625,6.625,0,0,1-1.54,1.781,8.073,8.073,0,0,1-4.052,1.657" transform="translate(-447.883 -347.968)"/><path class="a" d="M515.232,372.138a6.928,6.928,0,0,1-1.842,1.652,8.6,8.6,0,0,1-4.468,1.2" transform="translate(-444.798 -364.996)"/><path class="a" d="M500.334,418.813a.739.739,0,0,0-.039-.744c-.433-.516-2.053-.473-2.949.178-.386.281-.844.824-.625,1.186.3.49,1.7.436,2.6.111A1.677,1.677,0,0,0,500.334,418.813Z" transform="translate(-434.441 -403.506)"/></g><path class="b" d="M161.953,388.42a8.9,8.9,0,0,0-.968,3.377c.046.807,1.048,1.356,1.813,1.66a18.829,18.829,0,0,1-1.878,3.536c-3.4,4.892-9.511,8.613-15.742,8.194-1.475-.1-5.287-.357-6.6-2.781-.895-1.645-.377-3.8.3-6.606.814-3.383,1.821-4.4,1.192-6.107a5.55,5.55,0,0,0-2.583-2.732c-.9-.477-1.45-.448-3.427-.744a28.737,28.737,0,0,1-4.915-.994,12.268,12.268,0,0,1-4.569-2.93,15.928,15.928,0,0,1-3.923-6.305,25.058,25.058,0,0,1-1.441-10.627c.127-3.131.247-6.057,1.936-9.385a23.06,23.06,0,0,1,9.734-9.336c5.064-2.311,10.041-1.228,12.711-.646a28.1,28.1,0,0,1,11.769,5.86,28.981,28.981,0,0,1,11.62,22.4q.073,1.262.052,2.462Z" transform="translate(-114.013 -341.121)"/><path class="b" d="M295.858,625.509A4.832,4.832,0,0,0,294,629.456a4.215,4.215,0,0,0,2.011,3.5,4.018,4.018,0,0,0,4.32-.6,4.6,4.6,0,0,0,1.49-3.724c-.014-.561-.066-2.694-1.713-3.65C298.192,623.878,295.976,625.423,295.858,625.509Z" transform="translate(-261.738 -577.159)"/><path class="b" d="M181.371,391.107a2.823,2.823,0,0,0-2.4,2.939c.151,1.831,2.075,2.883,3.593,2.991a3.705,3.705,0,0,0,3.7-2.62,2.725,2.725,0,0,0-.538-2.756,2.563,2.563,0,0,0-2.441-.77" transform="translate(-164.55 -379.657)"/><path class="b" d="M282.394,399.939a4.209,4.209,0,0,0-1.266,4.916A3.882,3.882,0,0,0,285,407.164a4.045,4.045,0,0,0,3.054-2.682c.372-1.291.666-2.517-.509-3.8a4.934,4.934,0,0,0-3.364-1.192" transform="translate(-250.583 -386.971)"/><path class="b" d="M351.748,476.518a4.311,4.311,0,0,0-1.937,4.395,2.992,2.992,0,0,0,3.128,1.937,3.09,3.09,0,0,0,2.793-2.98,3.44,3.44,0,0,0-.348-2.21,2.6,2.6,0,0,0-2.222-1.142" transform="translate(-308.805 -452.05)"/><path class="b" d="M121.1,449.731l6.033-4.916" transform="translate(-115.653 -425.266)"/><path class="b" d="M254.073,693.339l6.033-4.916" transform="translate(-228.008 -631.095)"/><path class="b" d="M119.154,425l6.033-4.41" transform="translate(-114.013 -404.794)"/><path class="b" d="M121.1,480.016l7-5.595" transform="translate(-115.653 -450.28)"/><path class="b" d="M128.734,492.4l10.287-7.889" transform="translate(-122.107 -458.803)"/><path class="b" d="M142.813,517.036l11.407-9.213" transform="translate(-134.003 -478.502)"/><path class="b" d="M169.458,545.076l9.875-8.551" transform="translate(-156.515 -502.753)"/><path class="b" d="M203.043,562.715l9.584-7.861" transform="translate(-184.892 -518.24)"/><path class="b" d="M244.257,578.7l8.073-6.621" transform="translate(-219.715 -532.794)"/><path class="b" d="M254.872,600.018,265,591.665" transform="translate(-228.684 -549.342)"/><path class="b" d="M243.027,654.471l8.455-6.945" transform="translate(-218.675 -596.54)"/><path class="b" d="M286.028,667.422,300.377,655.6" transform="translate(-255.008 -603.359)"/><path class="b" d="M86,527.163a18.468,18.468,0,0,0,.9,5.953c1.311,3.077,4.669,5.687,5.638,6.4" transform="translate(-86 -494.843)"/><path class="b" d="M433.631,590.853a71.616,71.616,0,0,0,4.019-6.2c1.39-2.332,4.251-7.712,4.756-8.971" transform="translate(-379.721 -535.84)"/><path class="b" d="M320.694,746.545a19.338,19.338,0,0,0,4.031-.991,14.828,14.828,0,0,0,3.342-2.372" transform="translate(-284.298 -677.362)"/><path class="b" d="M406.827,426.828s-12.068,28.38-13.2,30.639-2.068,1.944-2.068,1.944a7.334,7.334,0,0,1-.869-.284c-.765-.3-1.767-.853-1.813-1.66a8.9,8.9,0,0,1,.968-3.377l5.076-11.707,7.811-18.013a2.465,2.465,0,0,1,2-1.4c1.48-.138,2.469.659,2.57,1.4A8.317,8.317,0,0,1,406.827,426.828Z" transform="translate(-341.902 -406.791)"/><path class="b" d="M385.092,367.071a9.585,9.585,0,0,1,3.352,2.384,10.52,10.52,0,0,1,2.458,7.672" transform="translate(-338.709 -359.578)"/><path class="b" d="M207.434,671.474a9.353,9.353,0,0,1-1.945-3.251,7.97,7.97,0,0,1,.851-6.769" transform="translate(-186.613 -608.308)"/><path class="b" d="M486.381,318.753s.372,2.607-2.756,4.618-5.625,4.171-5.532,6.778c.073,2.074,1.358,2.853,2.336,2.882,2.458.072,3.126-.527,4.91-2.509a10.746,10.746,0,0,0,2.533-6.851,9.823,9.823,0,0,0-1.043-4.4Z" transform="translate(-417.285 -318.753)"/><path class="b" d="M508.74,344.654a6.623,6.623,0,0,1-1.54,1.78,8.074,8.074,0,0,1-4.052,1.657" transform="translate(-438.457 -340.637)"/><path class="b" d="M505.806,364.806a6.927,6.927,0,0,1-1.841,1.652,8.6,8.6,0,0,1-4.469,1.2" transform="translate(-435.371 -357.664)"/><path class="b" d="M490.908,411.481a.739.739,0,0,0-.039-.744c-.432-.516-2.053-.473-2.948.178-.386.281-.844.824-.625,1.186.3.49,1.7.436,2.6.111A1.679,1.679,0,0,0,490.908,411.481Z" transform="translate(-425.015 -396.174)"/><text class="c" transform="translate(87.667 44.14)"><tspan x="0" y="0">Hemant Arts</tspan></text><rect class="d" width="1.624" height="65.943" transform="translate(78.372 1.62)"/></g></g></svg>